<svg width="41" height="40" viewBox="0 0 41 40" fill="none" xmlns="http://www.w3.org/2000/svg">
<path fill-rule="evenodd" clip-rule="evenodd" d="M20.1919 40C31.2376 40 40.1919 31.0457 40.1919 20C40.1919 8.95432 31.2376 0 20.1919 0C9.14621 0 0.191895 8.95432 0.191895 20C0.191895 31.0457 9.14621 40 20.1919 40ZM13.151 16.368H17.3039V12.8063C17.3039 8.67608 19.8254 6.428 23.5097 6.428C24.7533 6.42359 25.9962 6.48712 27.2329 6.61832V10.9351H24.6921C22.6876 10.9351 22.2994 11.8877 22.2994 13.2857V16.368H27.0922L26.4677 21.208H22.2997V33.572H17.3039V21.208H13.151V16.368Z" fill="black"/>
</svg>
