<svg width="41" height="40" viewBox="0 0 41 40" fill="none" xmlns="http://www.w3.org/2000/svg">
<path d="M24.02 20C24.02 22.1143 22.3062 23.8281 20.1919 23.8281C18.0776 23.8281 16.3638 22.1143 16.3638 20C16.3638 17.8857 18.0776 16.1719 20.1919 16.1719C22.3062 16.1719 24.02 17.8857 24.02 20Z" fill="black"/>
<path d="M29.1445 13.2269C28.9605 12.7283 28.6669 12.2769 28.2855 11.9064C27.915 11.525 27.4639 11.2314 26.965 11.0474C26.5603 10.8902 25.9524 10.7031 24.8327 10.6522C23.6215 10.5969 23.2583 10.585 20.1919 10.585C17.1252 10.585 16.762 10.5966 15.5511 10.6519C14.4314 10.7031 13.8232 10.8902 13.4188 11.0474C12.9199 11.2314 12.4685 11.525 12.0983 11.9064C11.7169 12.2769 11.4233 12.728 11.239 13.2269C11.0818 13.6316 10.8947 14.2398 10.8438 15.3595C10.7885 16.5704 10.7766 16.9336 10.7766 20.0003C10.7766 23.0667 10.7885 23.4299 10.8438 24.6411C10.8947 25.7608 11.0818 26.3687 11.239 26.7734C11.4233 27.2723 11.7166 27.7234 12.098 28.0939C12.4685 28.4753 12.9196 28.7689 13.4185 28.9529C13.8232 29.1104 14.4314 29.2975 15.5511 29.3484C16.762 29.4037 17.1249 29.4153 20.1916 29.4153C23.2586 29.4153 23.6218 29.4037 24.8324 29.3484C25.9521 29.2975 26.5603 29.1104 26.965 28.9529C27.9666 28.5666 28.7582 27.775 29.1445 26.7734C29.3017 26.3687 29.4888 25.7608 29.54 24.6411C29.5953 23.4299 29.6069 23.0667 29.6069 20.0003C29.6069 16.9336 29.5953 16.5704 29.54 15.3595C29.4891 14.2398 29.302 13.6316 29.1445 13.2269ZM20.1919 25.8972C16.9348 25.8972 14.2944 23.2571 14.2944 20C14.2944 16.7429 16.9348 14.1028 20.1919 14.1028C23.4487 14.1028 26.0891 16.7429 26.0891 20C26.0891 23.2571 23.4487 25.8972 20.1919 25.8972ZM26.3223 15.2478C25.5612 15.2478 24.9441 14.6307 24.9441 13.8696C24.9441 13.1085 25.5612 12.4915 26.3223 12.4915C27.0834 12.4915 27.7004 13.1085 27.7004 13.8696C27.7001 14.6307 27.0834 15.2478 26.3223 15.2478Z" fill="black"/>
<path d="M20.1919 0C9.14789 0 0.191895 8.95599 0.191895 20C0.191895 31.044 9.14789 40 20.1919 40C31.2359 40 40.1919 31.044 40.1919 20C40.1919 8.95599 31.2359 0 20.1919 0ZM31.607 24.7348C31.5515 25.9573 31.3571 26.792 31.0732 27.5226C30.4766 29.0652 29.2571 30.2847 27.7145 30.8813C26.9842 31.1652 26.1492 31.3593 24.927 31.4151C23.7023 31.4709 23.3111 31.4844 20.1922 31.4844C17.073 31.4844 16.6821 31.4709 15.4571 31.4151C14.2349 31.3593 13.3999 31.1652 12.6696 30.8813C11.903 30.593 11.209 30.141 10.6353 29.5566C10.0512 28.9832 9.59924 28.2889 9.31085 27.5226C9.02704 26.7923 8.83264 25.9573 8.7771 24.7351C8.72064 23.5101 8.70752 23.1189 8.70752 20C8.70752 16.8811 8.72064 16.4899 8.77679 15.2652C8.83234 14.0427 9.02643 13.208 9.31024 12.4774C9.59863 11.7111 10.0509 11.0168 10.6353 10.4434C11.2087 9.85901 11.903 9.40704 12.6693 9.11865C13.3999 8.83484 14.2346 8.64075 15.4571 8.5849C16.6818 8.52905 17.073 8.51562 20.1919 8.51562C23.3108 8.51562 23.702 8.52905 24.9267 8.58521C26.1492 8.64075 26.9839 8.83484 27.7145 9.11835C28.4808 9.40674 29.175 9.85901 29.7488 10.4434C30.3329 11.0172 30.7852 11.7111 31.0732 12.4774C31.3574 13.208 31.5515 14.0427 31.6073 15.2652C31.6631 16.4899 31.6763 16.8811 31.6763 20C31.6763 23.1189 31.6631 23.5101 31.607 24.7348Z" fill="black"/>
</svg>
