<svg width="41" height="40" viewBox="0 0 41 40" fill="none" xmlns="http://www.w3.org/2000/svg">
<path d="M20.1919 0C9.14789 0 0.191895 8.95599 0.191895 20C0.191895 31.044 9.14789 40 20.1919 40C31.2359 40 40.1919 31.044 40.1919 20C40.1919 8.95599 31.2359 0 20.1919 0ZM14.3801 30.2344H9.50922V15.5801H14.3801V30.2344ZM11.9448 13.5791H11.9131C10.2786 13.5791 9.22144 12.4539 9.22144 11.0477C9.22144 9.60968 10.3109 8.51562 11.9772 8.51562C13.6434 8.51562 14.6688 9.60968 14.7006 11.0477C14.7006 12.4539 13.6434 13.5791 11.9448 13.5791ZM31.9436 30.2344H27.0733V22.3947C27.0733 20.4245 26.368 19.0808 24.6057 19.0808C23.2601 19.0808 22.4587 19.9872 22.1066 20.8621C21.9778 21.1752 21.9464 21.6129 21.9464 22.0508V30.2344H17.0757C17.0757 30.2344 17.1395 16.955 17.0757 15.5801H21.9464V17.655C22.5936 16.6565 23.7518 15.2362 26.336 15.2362C29.5406 15.2362 31.9436 17.3306 31.9436 21.8317V30.2344Z" fill="black"/>
</svg>
