<svg width="29" height="30" viewBox="0 0 29 30" fill="none" xmlns="http://www.w3.org/2000/svg">
<path d="M28.5233 27.3252L21.3833 19.8992C23.2191 17.7169 24.225 14.971 24.225 12.1125C24.225 5.43377 18.7912 0 12.1125 0C5.43377 0 0 5.43377 0 12.1125C0 18.7912 5.43377 24.225 12.1125 24.225C14.6198 24.225 17.0091 23.4687 19.0519 22.0331L26.2462 29.5155C26.5469 29.8278 26.9513 30 27.3848 30C27.795 30 28.1842 29.8436 28.4796 29.5592C29.1074 28.9552 29.1274 27.9535 28.5233 27.3252ZM12.1125 3.15978C17.0491 3.15978 21.0652 7.17586 21.0652 12.1125C21.0652 17.0491 17.0491 21.0652 12.1125 21.0652C7.17586 21.0652 3.15978 17.0491 3.15978 12.1125C3.15978 7.17586 7.17586 3.15978 12.1125 3.15978Z" fill="black" fill-opacity="0.5"/>
</svg>
