<svg width="41" height="40" viewBox="0 0 41 40" fill="none" xmlns="http://www.w3.org/2000/svg">
<path d="M20.1919 0C9.14789 0 0.191895 8.95599 0.191895 20C0.191895 31.044 9.14789 40 20.1919 40C31.2359 40 40.1919 31.044 40.1919 20C40.1919 8.95599 31.2359 0 20.1919 0ZM29.3237 15.5939C29.3325 15.7907 29.3368 15.9885 29.3368 16.1871C29.3368 22.2531 24.7195 29.248 16.2756 29.2484C13.6831 29.2484 11.2707 28.4885 9.23914 27.1863C9.59833 27.2287 9.96393 27.2498 10.3341 27.2498C12.485 27.2498 14.4644 26.5161 16.0357 25.2847C14.0261 25.2475 12.3318 23.9203 11.7471 22.0963C12.0269 22.15 12.3147 22.1793 12.6098 22.1793C13.0288 22.1793 13.4347 22.1228 13.8204 22.0175C11.7199 21.597 10.1376 19.7406 10.1376 17.5177C10.1376 17.4969 10.1376 17.4783 10.1382 17.4591C10.7568 17.803 11.4642 18.0099 12.2173 18.0331C10.9847 17.2107 10.1745 15.8047 10.1745 14.212C10.1745 13.371 10.4019 12.583 10.7961 11.9046C13.0599 14.6823 16.4431 16.5091 20.2584 16.701C20.1797 16.3647 20.1391 16.0144 20.1391 15.6543C20.1391 13.1201 22.1951 11.0641 24.7302 11.0641C26.0507 11.0641 27.2433 11.6223 28.081 12.5146C29.1268 12.3083 30.1089 11.9263 30.996 11.4005C30.6527 12.4719 29.9252 13.371 28.9773 13.9395C29.9059 13.8284 30.791 13.5822 31.6134 13.2166C30.9991 14.1373 30.22 14.946 29.3237 15.5939Z" fill="black"/>
</svg>
