<svg width="39" height="26" viewBox="0 0 39 26" fill="none" xmlns="http://www.w3.org/2000/svg">
<path d="M35.3 0.500074H2.85773C1.2794 0.500074 0 1.77948 0 3.3578V22.6423C0 24.2205 1.2794 25.5 2.85773 25.5H35.3C36.8782 25.5 38.1577 24.2206 38.1577 22.6423V3.3578C38.1577 1.77948 36.8783 0.500074 35.3 0.500074Z" fill="#F5F5F5"/>
<path d="M0.157177 2.42316H38.0005C37.6132 1.30399 36.5508 0.500074 35.3 0.500074H2.85773C1.60687 0.500074 0.544492 1.30399 0.157177 2.42316Z" fill="#FF4B55"/>
<path d="M38.1577 8.19228H0V10.1153H38.1577V8.19228Z" fill="#FF4B55"/>
<path d="M38.1577 4.34595H0V6.26897H38.1577V4.34595Z" fill="#FF4B55"/>
<path d="M0 13.3036C0 13.6669 0.294604 13.9615 0.657922 13.9615H38.1577V12.0385H0V13.3036Z" fill="#FF4B55"/>
<path d="M38.1577 19.7313H0V21.6543H38.1577V19.7313Z" fill="#FF4B55"/>
<path d="M38.0005 23.5768H0.157177C0.544492 24.696 1.60695 25.4999 2.85773 25.4999H35.3C36.5508 25.4999 37.6132 24.696 38.0005 23.5768Z" fill="#FF4B55"/>
<path d="M38.1577 15.8849H0V17.8079H38.1577V15.8849Z" fill="#FF4B55"/>
<path d="M0.657922 13.9615H17.1052C17.4685 13.9615 17.7632 13.6669 17.7632 13.3036V1.15792C17.7632 0.794529 17.4685 0.5 17.1052 0.5L2.85773 0.500074C1.2794 0.500149 0 1.77948 0 3.3578V13.3036C0 13.6669 0.294604 13.9615 0.657922 13.9615Z" fill="#41479B"/>
<path d="M1.84744 2.01006L1.99307 2.44679L2.45342 2.45029C2.51304 2.45081 2.53771 2.52683 2.48979 2.56223L2.11947 2.83567L2.25838 3.27456C2.27642 3.33135 2.21166 3.37845 2.16314 3.34372L1.78864 3.07609L1.41415 3.34379C1.36563 3.37852 1.30101 3.33142 1.3189 3.27463L1.45782 2.83574L1.08749 2.5623C1.03957 2.52683 1.06424 2.45081 1.12386 2.45037L1.58422 2.44686L1.72984 2.01014C1.74862 1.9535 1.82851 1.9535 1.84744 2.01006Z" fill="#F5F5F5"/>
<path d="M1.84744 4.2946L1.99307 4.73133L2.45342 4.73483C2.51304 4.73536 2.53771 4.8113 2.48979 4.84677L2.11947 5.12029L2.25838 5.55917C2.27642 5.61596 2.21166 5.66306 2.16314 5.62833L1.78864 5.36071L1.41415 5.62841C1.36563 5.66306 1.30101 5.61604 1.3189 5.55925L1.45782 5.12036L1.08749 4.84685C1.03957 4.81137 1.06424 4.73543 1.12386 4.73491L1.58422 4.7314L1.72984 4.29468C1.74862 4.23811 1.82851 4.23811 1.84744 4.2946Z" fill="#F5F5F5"/>
<path d="M1.84744 6.57922L1.99307 7.01595L2.45342 7.01945C2.51304 7.01997 2.53771 7.09592 2.48979 7.13139L2.11947 7.4049L2.25838 7.84379C2.27642 7.90058 2.21166 7.94768 2.16314 7.91295L1.78864 7.64533L1.41415 7.91303C1.36563 7.94768 1.30101 7.90073 1.3189 7.84387L1.45782 7.40498L1.08749 7.13146C1.03957 7.09599 1.06424 7.02005 1.12386 7.01953L1.58422 7.01602L1.72984 6.5793C1.74862 6.52266 1.82851 6.52266 1.84744 6.57922Z" fill="#F5F5F5"/>
<path d="M1.84744 8.86376L1.99307 9.30049L2.45342 9.30399C2.51304 9.30452 2.53771 9.38053 2.48979 9.41593L2.11947 9.68945L2.25838 10.1283C2.27642 10.1851 2.21166 10.2322 2.16314 10.1975L1.78864 9.92987L1.41415 10.1976C1.36563 10.2322 1.30101 10.1852 1.3189 10.1284L1.45782 9.68952L1.08749 9.41601C1.03957 9.38068 1.06424 9.30459 1.12386 9.30407L1.58422 9.30056L1.72984 8.86384C1.74862 8.8072 1.82851 8.8072 1.84744 8.86376Z" fill="#F5F5F5"/>
<path d="M1.84744 11.1483L1.99307 11.585L2.45342 11.5885C2.51304 11.5891 2.53771 11.665 2.48979 11.7005L2.11947 11.974L2.25838 12.4129C2.27642 12.4697 2.21166 12.5168 2.16314 12.482L1.78864 12.2144L1.41415 12.4821C1.36563 12.5168 1.30101 12.4697 1.3189 12.413L1.45782 11.9741L1.08749 11.7006C1.03957 11.6651 1.06424 11.5891 1.12386 11.5886L1.58422 11.5851L1.72984 11.1484C1.74862 11.0918 1.82851 11.0918 1.84744 11.1483Z" fill="#F5F5F5"/>
<path d="M3.62066 3.13012L3.76628 3.56685L4.22664 3.57035C4.28626 3.57088 4.31093 3.64689 4.263 3.68229L3.89268 3.95581L4.0316 4.39469C4.04963 4.45148 3.98487 4.49858 3.93635 4.46385L3.56186 4.19615L3.18736 4.46385C3.13884 4.49851 3.07423 4.45148 3.09212 4.39469L3.23103 3.95581L2.86071 3.68229C2.81279 3.64682 2.83746 3.57088 2.89708 3.57035L3.35743 3.56685L3.50306 3.13012C3.52184 3.07363 3.6018 3.07363 3.62066 3.13012Z" fill="#F5F5F5"/>
<path d="M3.62066 5.41474L3.76628 5.85147L4.22664 5.85497C4.28626 5.85549 4.31093 5.93151 4.263 5.96691L3.89268 6.24042L4.0316 6.67931C4.04963 6.7361 3.98487 6.7832 3.93635 6.74847L3.56186 6.48077L3.18736 6.74847C3.13884 6.78313 3.07423 6.73618 3.09212 6.67931L3.23103 6.24042L2.86071 5.96691C2.81279 5.93158 2.83746 5.85549 2.89708 5.85497L3.35743 5.85147L3.50306 5.41474C3.52184 5.35818 3.6018 5.35818 3.62066 5.41474Z" fill="#F5F5F5"/>
<path d="M3.62066 7.69928L3.76628 8.13601L4.22664 8.13951C4.28626 8.14004 4.31093 8.21598 4.263 8.25145L3.89268 8.52497L4.0316 8.96385C4.04963 9.02064 3.98487 9.06774 3.93635 9.03302L3.56186 8.76532L3.18736 9.03302C3.13884 9.06767 3.07423 9.02064 3.09212 8.96385L3.23103 8.52497L2.86071 8.25145C2.81279 8.21598 2.83746 8.14004 2.89708 8.13951L3.35743 8.13601L3.50306 7.69928C3.52184 7.64272 3.6018 7.64272 3.62066 7.69928Z" fill="#F5F5F5"/>
<path d="M3.62066 9.98383L3.76628 10.4206L4.22664 10.4241C4.28626 10.4246 4.31093 10.5005 4.263 10.536L3.89268 10.8095L4.0316 11.2484C4.04963 11.3052 3.98487 11.3523 3.93635 11.3176L3.56186 11.0499L3.18736 11.3176C3.13884 11.3523 3.07423 11.3052 3.09212 11.2484L3.23103 10.8095L2.86071 10.536C2.81279 10.5005 2.83746 10.4246 2.89708 10.4241L3.35743 10.4206L3.50306 9.98383C3.52184 9.92734 3.6018 9.92734 3.62066 9.98383Z" fill="#F5F5F5"/>
<path d="M5.39387 2.01006L5.5395 2.44679L5.99985 2.45029C6.05947 2.45081 6.08414 2.52683 6.03622 2.56223L5.6659 2.83567L5.80481 3.27456C5.82285 3.33135 5.75809 3.37845 5.70957 3.34372L5.33507 3.07602L4.96058 3.34372C4.91206 3.37845 4.84744 3.33135 4.86533 3.27456L5.00425 2.83567L4.63392 2.56223C4.586 2.52675 4.61067 2.45074 4.67029 2.45029L5.13065 2.44679L5.27627 2.01006C5.29505 1.9535 5.37502 1.9535 5.39387 2.01006Z" fill="#F5F5F5"/>
<path d="M5.39387 4.2946L5.5395 4.73133L5.99985 4.73483C6.05947 4.73536 6.08414 4.8113 6.03622 4.84677L5.6659 5.12029L5.80481 5.55917C5.82285 5.61596 5.75809 5.66306 5.70957 5.62834L5.33507 5.36063L4.96058 5.62834C4.91206 5.66299 4.84744 5.61596 4.86533 5.55917L5.00425 5.12029L4.63392 4.84677C4.586 4.8113 4.61067 4.73536 4.67029 4.73483L5.13065 4.73133L5.27627 4.2946C5.29505 4.23811 5.37502 4.23811 5.39387 4.2946Z" fill="#F5F5F5"/>
<path d="M5.39387 6.57922L5.5395 7.01595L5.99985 7.01945C6.05947 7.01997 6.08414 7.09592 6.03622 7.13139L5.6659 7.4049L5.80481 7.84379C5.82285 7.90058 5.75809 7.94768 5.70957 7.91295L5.33507 7.64525L4.96058 7.91295C4.91206 7.94761 4.84744 7.90066 4.86533 7.84379L5.00425 7.4049L4.63392 7.13139C4.586 7.09592 4.61067 7.01997 4.67029 7.01945L5.13065 7.01595L5.27627 6.57922C5.29505 6.52266 5.37502 6.52266 5.39387 6.57922Z" fill="#F5F5F5"/>
<path d="M5.39387 8.86376L5.5395 9.30049L5.99985 9.30399C6.05947 9.30452 6.08414 9.38053 6.03622 9.41593L5.6659 9.68945L5.80481 10.1283C5.82285 10.1851 5.75809 10.2322 5.70957 10.1975L5.33507 9.9298L4.96058 10.1975C4.91206 10.2322 4.84744 10.1851 4.86533 10.1283L5.00425 9.68945L4.63392 9.41593C4.586 9.38061 4.61067 9.30452 4.67029 9.30399L5.13065 9.30049L5.27627 8.86376C5.29505 8.8072 5.37502 8.8072 5.39387 8.86376Z" fill="#F5F5F5"/>
<path d="M5.39387 11.1483L5.5395 11.585L5.99985 11.5885C6.05947 11.5891 6.08414 11.665 6.03622 11.7005L5.6659 11.974L5.80481 12.4129C5.82285 12.4697 5.75809 12.5168 5.70957 12.482L5.33507 12.2143L4.96058 12.482C4.91206 12.5167 4.84744 12.4697 4.86533 12.4129L5.00425 11.974L4.63392 11.7005C4.586 11.665 4.61067 11.5891 4.67029 11.5885L5.13065 11.585L5.27627 11.1483C5.29505 11.0918 5.37502 11.0918 5.39387 11.1483Z" fill="#F5F5F5"/>
<path d="M7.16716 3.13012L7.31279 3.56685L7.77314 3.57035C7.83276 3.57088 7.85743 3.64689 7.80951 3.68229L7.43919 3.95581L7.5781 4.39469C7.59614 4.45148 7.53138 4.49858 7.48286 4.46385L7.10836 4.19615L6.73387 4.46385C6.68535 4.49851 6.62073 4.45148 6.63862 4.39469L6.77754 3.95581L6.40722 3.68229C6.35929 3.64682 6.38396 3.57088 6.44358 3.57035L6.90394 3.56685L7.04956 3.13012C7.06827 3.07363 7.14831 3.07363 7.16716 3.13012Z" fill="#F5F5F5"/>
<path d="M7.16716 5.41474L7.31279 5.85147L7.77314 5.85497C7.83276 5.85549 7.85743 5.93151 7.80951 5.96691L7.43919 6.24042L7.5781 6.67931C7.59614 6.7361 7.53138 6.7832 7.48286 6.74847L7.10836 6.48077L6.73387 6.74847C6.68535 6.78313 6.62073 6.73618 6.63862 6.67931L6.77754 6.24042L6.40722 5.96691C6.35929 5.93158 6.38396 5.85549 6.44358 5.85497L6.90394 5.85147L7.04956 5.41474C7.06827 5.35818 7.14831 5.35818 7.16716 5.41474Z" fill="#F5F5F5"/>
<path d="M7.16716 7.69928L7.31279 8.13601L7.77314 8.13951C7.83276 8.14004 7.85743 8.21598 7.80951 8.25145L7.43919 8.52497L7.5781 8.96385C7.59614 9.02064 7.53138 9.06774 7.48286 9.03302L7.10836 8.76532L6.73387 9.03302C6.68535 9.06767 6.62073 9.02064 6.63862 8.96385L6.77754 8.52497L6.40722 8.25145C6.35929 8.21598 6.38396 8.14004 6.44358 8.13951L6.90394 8.13601L7.04956 7.69928C7.06827 7.64272 7.14831 7.64272 7.16716 7.69928Z" fill="#F5F5F5"/>
<path d="M7.16716 9.98383L7.31279 10.4206L7.77314 10.4241C7.83276 10.4246 7.85743 10.5005 7.80951 10.536L7.43919 10.8095L7.5781 11.2484C7.59614 11.3052 7.53138 11.3523 7.48286 11.3176L7.10836 11.0499L6.73387 11.3176C6.68535 11.3523 6.62073 11.3052 6.63862 11.2484L6.77754 10.8095L6.40722 10.536C6.35929 10.5005 6.38396 10.4246 6.44358 10.4241L6.90394 10.4206L7.04956 9.98383C7.06827 9.92734 7.14831 9.92734 7.16716 9.98383Z" fill="#F5F5F5"/>
<path d="M8.94038 2.01006L9.086 2.44679L9.54636 2.45029C9.60598 2.45081 9.63064 2.52683 9.58272 2.56223L9.2124 2.83567L9.35132 3.27456C9.36936 3.33135 9.30459 3.37845 9.25607 3.34372L8.8815 3.07609L8.50701 3.34379C8.45849 3.37852 8.39388 3.33142 8.41176 3.27463L8.55068 2.83574L8.18036 2.5623C8.13243 2.52683 8.1571 2.45081 8.21672 2.45037L8.67708 2.44686L8.8227 2.01014C8.84156 1.9535 8.92152 1.9535 8.94038 2.01006Z" fill="#F5F5F5"/>
<path d="M8.94038 4.2946L9.086 4.73133L9.54636 4.73483C9.60598 4.73536 9.63064 4.8113 9.58272 4.84677L9.2124 5.12029L9.35132 5.55917C9.36936 5.61596 9.30459 5.66306 9.25607 5.62834L8.8815 5.36063L8.50701 5.62834C8.45849 5.66299 8.39388 5.61596 8.41176 5.55917L8.55068 5.12029L8.18036 4.84677C8.13243 4.8113 8.1571 4.73536 8.21672 4.73483L8.67708 4.73133L8.8227 4.2946C8.84156 4.23811 8.92152 4.23811 8.94038 4.2946Z" fill="#F5F5F5"/>
<path d="M8.94038 6.57922L9.086 7.01595L9.54636 7.01945C9.60598 7.01997 9.63064 7.09592 9.58272 7.13139L9.2124 7.4049L9.35132 7.84379C9.36936 7.90058 9.30459 7.94768 9.25607 7.91295L8.8815 7.64518L8.50701 7.91288C8.45849 7.94753 8.39388 7.90051 8.41176 7.84372L8.55068 7.40483L8.18036 7.13132C8.13243 7.09584 8.1571 7.0199 8.21672 7.01938L8.67708 7.01587L8.8227 6.57915C8.84156 6.52266 8.92152 6.52266 8.94038 6.57922Z" fill="#F5F5F5"/>
<path d="M8.94038 8.86376L9.086 9.30049L9.54636 9.30399C9.60598 9.30452 9.63064 9.38053 9.58272 9.41593L9.2124 9.68945L9.35132 10.1283C9.36936 10.1851 9.30459 10.2322 9.25607 10.1975L8.8815 9.9298L8.50701 10.1975C8.45849 10.2322 8.39388 10.1851 8.41176 10.1283L8.55068 9.68945L8.18036 9.41593C8.13243 9.38061 8.1571 9.30452 8.21672 9.30399L8.67708 9.30049L8.8227 8.86376C8.84156 8.8072 8.92152 8.8072 8.94038 8.86376Z" fill="#F5F5F5"/>
<path d="M8.94038 11.1483L9.086 11.585L9.54636 11.5885C9.60598 11.5891 9.63064 11.665 9.58272 11.7005L9.2124 11.974L9.35132 12.4129C9.36936 12.4697 9.30459 12.5168 9.25607 12.482L8.8815 12.2143L8.50701 12.482C8.45849 12.5167 8.39388 12.4697 8.41176 12.4129L8.55068 11.974L8.18036 11.7005C8.13243 11.665 8.1571 11.5891 8.21672 11.5885L8.67708 11.585L8.8227 11.1483C8.84156 11.0918 8.92152 11.0918 8.94038 11.1483Z" fill="#F5F5F5"/>
<path d="M10.7136 3.13012L10.8592 3.56685L11.3196 3.57035C11.3792 3.57088 11.4039 3.64689 11.3559 3.68229L10.9856 3.95581L11.1245 4.39469C11.1426 4.45148 11.0778 4.49858 11.0293 4.46385L10.6548 4.19615L10.2803 4.46385C10.2318 4.49851 10.1672 4.45148 10.1851 4.39469L10.324 3.95581L9.95364 3.68229C9.90572 3.64682 9.93039 3.57088 9.99001 3.57035L10.4504 3.56685L10.596 3.13012C10.6148 3.07363 10.6947 3.07363 10.7136 3.13012Z" fill="#F5F5F5"/>
<path d="M10.7136 5.41474L10.8592 5.85147L11.3196 5.85497C11.3792 5.85549 11.4039 5.93151 11.3559 5.96691L10.9856 6.24042L11.1245 6.67931C11.1426 6.7361 11.0778 6.7832 11.0293 6.74847L10.6548 6.48077L10.2803 6.74847C10.2318 6.78313 10.1672 6.73618 10.1851 6.67931L10.324 6.24042L9.95364 5.96691C9.90572 5.93158 9.93039 5.85549 9.99001 5.85497L10.4504 5.85147L10.596 5.41474C10.6148 5.35818 10.6947 5.35818 10.7136 5.41474Z" fill="#F5F5F5"/>
<path d="M10.7136 7.69928L10.8592 8.13601L11.3196 8.13951C11.3792 8.14004 11.4039 8.21598 11.3559 8.25145L10.9856 8.52497L11.1245 8.96385C11.1426 9.02064 11.0778 9.06774 11.0293 9.03302L10.6548 8.76532L10.2803 9.03302C10.2318 9.06767 10.1672 9.02064 10.1851 8.96385L10.324 8.52497L9.95364 8.25145C9.90572 8.21598 9.93039 8.14004 9.99001 8.13951L10.4504 8.13601L10.596 7.69928C10.6148 7.64272 10.6947 7.64272 10.7136 7.69928Z" fill="#F5F5F5"/>
<path d="M10.7136 9.98383L10.8592 10.4206L11.3196 10.4241C11.3792 10.4246 11.4039 10.5005 11.3559 10.536L10.9856 10.8095L11.1245 11.2484C11.1426 11.3052 11.0778 11.3523 11.0293 11.3176L10.6548 11.0499L10.2803 11.3176C10.2318 11.3523 10.1672 11.3052 10.1851 11.2484L10.324 10.8095L9.95364 10.536C9.90572 10.5005 9.93039 10.4246 9.99001 10.4241L10.4504 10.4206L10.596 9.98383C10.6148 9.92734 10.6947 9.92734 10.7136 9.98383Z" fill="#F5F5F5"/>
<path d="M12.4869 2.01006L12.6325 2.44679L13.0929 2.45029C13.1525 2.45081 13.1772 2.52683 13.1292 2.56223L12.7589 2.83567L12.8978 3.27456C12.9159 3.33135 12.8511 3.37845 12.8026 3.34372L12.4281 3.07602L12.0536 3.34372C12.0051 3.37845 11.9405 3.33135 11.9583 3.27456L12.0973 2.83567L11.7269 2.56223C11.679 2.52675 11.7037 2.45074 11.7633 2.45029L12.2237 2.44679L12.3693 2.01006C12.388 1.9535 12.468 1.9535 12.4869 2.01006Z" fill="#F5F5F5"/>
<path d="M12.4869 4.2946L12.6325 4.73133L13.0929 4.73483C13.1525 4.73536 13.1772 4.8113 13.1292 4.84677L12.7589 5.12029L12.8978 5.55917C12.9159 5.61596 12.8511 5.66306 12.8026 5.62834L12.4281 5.36063L12.0536 5.62834C12.0051 5.66299 11.9405 5.61596 11.9583 5.55917L12.0973 5.12029L11.7269 4.84677C11.679 4.8113 11.7037 4.73536 11.7633 4.73483L12.2237 4.73133L12.3693 4.2946C12.388 4.23811 12.468 4.23811 12.4869 4.2946Z" fill="#F5F5F5"/>
<path d="M12.4869 6.57922L12.6325 7.01595L13.0929 7.01945C13.1525 7.01997 13.1772 7.09592 13.1292 7.13139L12.7589 7.4049L12.8978 7.84379C12.9159 7.90058 12.8511 7.94768 12.8026 7.91295L12.4281 7.64525L12.0536 7.91295C12.0051 7.94761 11.9405 7.90066 11.9583 7.84379L12.0973 7.4049L11.7269 7.13139C11.679 7.09592 11.7037 7.01997 11.7633 7.01945L12.2237 7.01595L12.3693 6.57922C12.388 6.52266 12.468 6.52266 12.4869 6.57922Z" fill="#F5F5F5"/>
<path d="M12.4869 8.86376L12.6325 9.30049L13.0929 9.30399C13.1525 9.30452 13.1772 9.38053 13.1292 9.41593L12.7589 9.68945L12.8978 10.1283C12.9159 10.1851 12.8511 10.2322 12.8026 10.1975L12.4281 9.9298L12.0536 10.1975C12.0051 10.2322 11.9405 10.1851 11.9583 10.1283L12.0973 9.68945L11.7269 9.41593C11.679 9.38061 11.7037 9.30452 11.7633 9.30399L12.2237 9.30049L12.3693 8.86376C12.388 8.8072 12.468 8.8072 12.4869 8.86376Z" fill="#F5F5F5"/>
<path d="M12.4869 11.1483L12.6325 11.585L13.0929 11.5885C13.1525 11.5891 13.1772 11.665 13.1292 11.7005L12.7589 11.974L12.8978 12.4129C12.9159 12.4697 12.8511 12.5168 12.8026 12.482L12.4281 12.2143L12.0536 12.482C12.0051 12.5167 11.9405 12.4697 11.9583 12.4129L12.0973 11.974L11.7269 11.7005C11.679 11.665 11.7037 11.5891 11.7633 11.5885L12.2237 11.585L12.3693 11.1483C12.388 11.0918 12.468 11.0918 12.4869 11.1483Z" fill="#F5F5F5"/>
<path d="M14.2601 3.13012L14.4057 3.56685L14.8661 3.57035C14.9257 3.57088 14.9504 3.64689 14.9024 3.68229L14.5321 3.95581L14.671 4.39469C14.6891 4.45148 14.6243 4.49858 14.5758 4.46385L14.2013 4.19615L13.8268 4.46385C13.7783 4.49851 13.7137 4.45148 13.7316 4.39469L13.8705 3.95581L13.5002 3.68229C13.4522 3.64682 13.4769 3.57088 13.5365 3.57035L13.9969 3.56685L14.1425 3.13012C14.1613 3.07363 14.2412 3.07363 14.2601 3.13012Z" fill="#F5F5F5"/>
<path d="M14.2601 5.41474L14.4057 5.85147L14.8661 5.85497C14.9257 5.85549 14.9504 5.93151 14.9024 5.96691L14.5321 6.24042L14.671 6.67931C14.6891 6.7361 14.6243 6.7832 14.5758 6.74847L14.2013 6.48077L13.8268 6.74847C13.7783 6.78313 13.7137 6.73618 13.7316 6.67931L13.8705 6.24042L13.5002 5.96691C13.4522 5.93158 13.4769 5.85549 13.5365 5.85497L13.9969 5.85147L14.1425 5.41474C14.1613 5.35818 14.2412 5.35818 14.2601 5.41474Z" fill="#F5F5F5"/>
<path d="M14.2601 7.69928L14.4057 8.13601L14.8661 8.13951C14.9257 8.14004 14.9504 8.21598 14.9024 8.25145L14.5321 8.52497L14.671 8.96385C14.6891 9.02064 14.6243 9.06774 14.5758 9.03302L14.2013 8.76532L13.8268 9.03302C13.7783 9.06767 13.7137 9.02064 13.7316 8.96385L13.8705 8.52497L13.5002 8.25145C13.4522 8.21598 13.4769 8.14004 13.5365 8.13951L13.9969 8.13601L14.1425 7.69928C14.1613 7.64272 14.2412 7.64272 14.2601 7.69928Z" fill="#F5F5F5"/>
<path d="M14.2601 9.98383L14.4057 10.4206L14.8661 10.4241C14.9257 10.4246 14.9504 10.5005 14.9024 10.536L14.5321 10.8095L14.671 11.2484C14.6891 11.3052 14.6243 11.3523 14.5758 11.3176L14.2013 11.0499L13.8268 11.3176C13.7783 11.3523 13.7137 11.3052 13.7316 11.2484L13.8705 10.8095L13.5002 10.536C13.4522 10.5005 13.4769 10.4246 13.5365 10.4241L13.9969 10.4206L14.1425 9.98383C14.1613 9.92734 14.2412 9.92734 14.2601 9.98383Z" fill="#F5F5F5"/>
<path d="M16.0334 2.01006L16.179 2.44679L16.6394 2.45029C16.699 2.45081 16.7237 2.52683 16.6757 2.56223L16.3054 2.83567L16.4443 3.27456C16.4624 3.33135 16.3976 3.37845 16.3491 3.34372L15.9746 3.07602L15.6001 3.34372C15.5516 3.37845 15.487 3.33135 15.5048 3.27456L15.6438 2.83567L15.2734 2.56223C15.2255 2.52675 15.2502 2.45074 15.3098 2.45029L15.7702 2.44679L15.9158 2.01006C15.9346 1.9535 16.0145 1.9535 16.0334 2.01006Z" fill="#F5F5F5"/>
<path d="M16.0334 4.2946L16.179 4.73133L16.6394 4.73483C16.699 4.73536 16.7237 4.8113 16.6757 4.84677L16.3054 5.12029L16.4443 5.55917C16.4624 5.61596 16.3976 5.66306 16.3491 5.62834L15.9746 5.36063L15.6001 5.62834C15.5516 5.66299 15.487 5.61596 15.5048 5.55917L15.6438 5.12029L15.2734 4.84677C15.2255 4.8113 15.2502 4.73536 15.3098 4.73483L15.7702 4.73133L15.9158 4.2946C15.9346 4.23811 16.0145 4.23811 16.0334 4.2946Z" fill="#F5F5F5"/>
<path d="M16.0334 6.57922L16.179 7.01595L16.6394 7.01945C16.699 7.01997 16.7237 7.09592 16.6757 7.13139L16.3054 7.4049L16.4443 7.84379C16.4624 7.90058 16.3976 7.94768 16.3491 7.91295L15.9746 7.64525L15.6001 7.91295C15.5516 7.94761 15.487 7.90066 15.5048 7.84379L15.6438 7.4049L15.2734 7.13139C15.2255 7.09592 15.2502 7.01997 15.3098 7.01945L15.7702 7.01595L15.9158 6.57922C15.9346 6.52266 16.0145 6.52266 16.0334 6.57922Z" fill="#F5F5F5"/>
<path d="M16.0334 8.86376L16.179 9.30049L16.6394 9.30399C16.699 9.30452 16.7237 9.38053 16.6757 9.41593L16.3054 9.68945L16.4443 10.1283C16.4624 10.1851 16.3976 10.2322 16.3491 10.1975L15.9746 9.9298L15.6001 10.1975C15.5516 10.2322 15.487 10.1851 15.5048 10.1283L15.6438 9.68945L15.2734 9.41593C15.2255 9.38061 15.2502 9.30452 15.3098 9.30399L15.7702 9.30049L15.9158 8.86376C15.9346 8.8072 16.0145 8.8072 16.0334 8.86376Z" fill="#F5F5F5"/>
<path d="M16.0334 11.1483L16.179 11.585L16.6394 11.5885C16.699 11.5891 16.7237 11.665 16.6757 11.7005L16.3054 11.974L16.4443 12.4129C16.4624 12.4697 16.3976 12.5168 16.3491 12.482L15.9746 12.2143L15.6001 12.482C15.5516 12.5167 15.487 12.4697 15.5048 12.4129L15.6438 11.974L15.2734 11.7005C15.2255 11.665 15.2502 11.5891 15.3098 11.5885L15.7702 11.585L15.9158 11.1483C15.9346 11.0918 16.0145 11.0918 16.0334 11.1483Z" fill="#F5F5F5"/>
</svg>
